<?xml version="1.0" standalone="no"?>
<!DOCTYPE svg PUBLIC "-//W3C//DTD SVG 20010904//EN"
 "http://www.w3.org/TR/2001/REC-SVG-20010904/DTD/svg10.dtd">
<svg version="1.0" xmlns="http://www.w3.org/2000/svg"
 width="132.000000pt" height="132.000000pt" viewBox="0 0 132.000000 132.000000"
 preserveAspectRatio="xMidYMid meet">
<metadata>
Created by potrace 1.11, written by Peter Selinger 2001-2013
</metadata>
<g transform="translate(0.000000,132.000000) scale(0.100000,-0.100000)"
fill="#000000" stroke="none">
<path d="M550 1310 c-48 -12 -126 -46 -134 -59 -5 -7 -56 -11 -141 -11 -73 0
-140 -3 -149 -6 -22 -9 -20 -78 3 -130 18 -40 72 -84 104 -84 22 0 26 -11 14
-40 -14 -34 -16 -118 -4 -155 6 -16 18 -42 29 -57 16 -24 18 -50 18 -286 0
-144 4 -272 9 -285 16 -42 70 -95 104 -103 19 -4 46 -23 68 -48 l37 -41 157 0
157 0 33 38 c18 21 56 50 85 65 40 20 59 38 76 71 22 42 23 53 24 308 1 255 1
267 24 311 32 67 33 126 1 203 -4 12 1 18 21 23 66 17 117 81 130 165 8 48 24
43 -156 45 -118 1 -128 3 -172 29 -25 15 -61 32 -80 38 -44 13 -214 19 -258 9z"/>
</g>
</svg>
